<?xml version="1.0" encoding="utf-8"?>
<!-- Generator: Adobe Illustrator 16.0.0, SVG Export Plug-In . SVG Version: 6.00 Build 0)  -->
<!DOCTYPE svg PUBLIC "-//W3C//DTD SVG 1.1//EN" "http://www.w3.org/Graphics/SVG/1.1/DTD/svg11.dtd">
<svg version="1.1" id="Layer_1" xmlns="http://www.w3.org/2000/svg" xmlns:xlink="http://www.w3.org/1999/xlink" x="0px" y="0px"
	 width="512px" height="512px" viewBox="0 0 512 512" enable-background="new 0 0 512 512" xml:space="preserve">
<text transform="matrix(1 0 0 1 168.783 543.8093)" fill="#FFFF00" font-family="'Verdana-Bold'" font-size="20">simpleicon.com</text>
<text transform="matrix(1 0 0 1 9.1931 567.8093)" fill="#FFFF00" font-family="'Verdana'" font-size="20">Collection Of Flat Icon, Symbols And Glyph Icons</text>
<g>
	<path d="M301.762,178.343c-32.892-32.892-86.414-32.894-119.3,0c-32.896,32.892-32.896,86.408,0,119.3
		c32.887,32.896,86.409,32.896,119.3,0.01C334.654,264.751,334.654,211.234,301.762,178.343z M202.504,197.645
		c-14.756,14.753-25.353,31.958-31.811,50.037c-1.408-20.132,6.312-41.806,22.889-58.38c16.34-16.342,37.649-24.085,57.54-22.954
		C233.565,172.845,216.862,183.279,202.504,197.645z"/>
	<path d="M256,50C142.233,50,50,142.232,50,256s92.232,206,206,206s206-92.232,206-206S369.768,50,256,50z M383.649,379.529
		c-5.577,5.578-14.63,5.583-20.213,0l-42.472-42.467c-4.14-4.145-5.19-10.185-3.184-15.319l-8.047-8.047
		c-39.813,35.607-101.18,34.3-139.402-3.928c-39.578-39.576-39.578-103.979,0-143.559c39.585-39.585,103.99-39.585,143.566,0
		c38.223,38.22,39.535,99.587,3.923,139.4l8.052,8.057c5.125-2.007,11.17-0.961,15.319,3.184l42.462,42.462
		C389.237,364.899,389.237,373.952,383.649,379.529z"/>
</g>
</svg>
